<svg width="53" height="32" viewBox="0 0 53 32" fill="none" xmlns="http://www.w3.org/2000/svg">
<path d="M11.0616 25.1803C10.843 24.7541 10.6846 24.2241 10.5862 23.5902C9.43866 24.8688 7.94688 25.5082 6.11082 25.5082C4.37309 25.5082 2.93046 25.0055 1.78292 24C0.646307 22.9945 0.0780029 21.7268 0.0780029 20.1967C0.0780029 18.317 0.771994 16.8743 2.15997 15.8689C3.55888 14.8634 5.57526 14.3552 8.20918 14.3443H10.3895V13.3278C10.3895 12.5082 10.1764 11.8525 9.75016 11.3606C9.33484 10.8689 8.67365 10.623 7.76653 10.623C6.96873 10.623 6.34032 10.8142 5.88131 11.1967C5.4332 11.5792 5.20915 12.1038 5.20915 12.7705H0.471446C0.471446 11.7432 0.788387 10.7923 1.42227 9.91801C2.05614 9.04372 2.95232 8.36065 4.11079 7.86885C5.26927 7.36614 6.56983 7.11475 8.01246 7.11475C10.1982 7.11475 11.9305 7.66667 13.2092 8.77052C14.4988 9.8634 15.1436 11.4044 15.1436 13.3934V21.082C15.1545 22.765 15.3895 24.0382 15.8485 24.9017V25.1803H11.0616ZM7.14358 21.8853C7.84301 21.8853 8.48784 21.7322 9.078 21.4263C9.66817 21.1093 10.1053 20.6885 10.3895 20.1639V17.1148H8.61899C6.24742 17.1148 4.98511 17.9344 4.8321 19.5738L4.81571 19.8525C4.81571 20.4426 5.02336 20.9289 5.43866 21.3115C5.85398 21.694 6.42227 21.8853 7.14358 21.8853ZM21.097 25.1803H16.3429V0H21.097V25.1803ZM38.2964 16.4754C38.2964 19.2077 37.6734 21.3989 36.4275 23.0492C35.1925 24.6885 33.5204 25.5082 31.4111 25.5082C29.6188 25.5082 28.1707 24.8852 27.0669 23.6393V32H22.3292V7.44262H26.7226L26.8865 9.18033C28.0341 7.80328 29.5314 7.11475 31.3783 7.11475C33.5641 7.11475 35.2636 7.92351 36.4767 9.54098C37.6898 11.1585 38.2964 13.388 38.2964 16.2295V16.4754ZM33.5587 16.1311C33.5587 14.4809 33.2636 13.2077 32.6734 12.3115C32.0942 11.4153 31.2472 10.9672 30.1324 10.9672C28.6461 10.9672 27.6243 11.5355 27.0669 12.6721V19.9344C27.6461 21.1038 28.6789 21.6885 30.1652 21.6885C32.4275 21.6885 33.5587 19.8361 33.5587 16.1311ZM48.1678 20.2787C48.1678 19.6995 47.8782 19.2459 47.299 18.918C46.7307 18.5793 45.8126 18.2787 44.5449 18.0164C40.3263 17.1311 38.217 15.3388 38.217 12.6394C38.217 11.0656 38.8673 9.75412 40.1678 8.70494C41.4793 7.6448 43.1897 7.11475 45.299 7.11475C47.5503 7.11475 49.3482 7.6448 50.6924 8.70494C52.0476 9.76504 52.725 11.1421 52.725 12.8361H47.9875C47.9875 12.1585 47.7689 11.6011 47.3317 11.1639C46.8946 10.7159 46.2115 10.4918 45.2826 10.4918C44.4848 10.4918 43.8673 10.6722 43.4301 11.0328C42.993 11.3935 42.7744 11.8525 42.7744 12.4098C42.7744 12.9344 43.0203 13.3607 43.5121 13.6885C44.0148 14.0055 44.8564 14.2842 46.0367 14.5246C47.217 14.7541 48.2115 15.0164 49.0203 15.3115C51.523 16.2295 52.7743 17.8197 52.7743 20.0819C52.7743 21.6995 52.0804 23.0109 50.6924 24.0164C49.3045 25.0109 47.5121 25.5082 45.3154 25.5082C43.8291 25.5082 42.5066 25.2459 41.3482 24.7213C40.2006 24.1858 39.299 23.459 38.6432 22.541C37.9875 21.612 37.6596 20.612 37.6596 19.541H42.1514C42.1952 20.3825 42.5066 21.0273 43.0859 21.4754C43.6651 21.9235 44.441 22.1476 45.4137 22.1476C46.3209 22.1476 47.0039 21.9781 47.4629 21.6393C47.9329 21.2896 48.1678 20.8361 48.1678 20.2787Z" fill="#241D1F"/>
</svg>
