<svg width="248" height="24" viewBox="0 0 248 24" fill="none" xmlns="http://www.w3.org/2000/svg">
<g clip-path="url(#clip0_3_40)">
<path d="M8.2962 18.8852C8.13225 18.5656 8.01339 18.168 7.93962 17.6926C7.07896 18.6516 5.96013 19.1311 4.58308 19.1311C3.27978 19.1311 2.19782 18.7541 1.33716 18C0.4847 17.2459 0.0584717 16.2951 0.0584717 15.1475C0.0584717 13.7377 0.578965 12.6558 1.61995 11.9016C2.66913 11.1475 4.18142 10.7664 6.15685 10.7582H7.79208V9.99588C7.79208 9.38117 7.63226 8.88936 7.31259 8.52047C7.0011 8.15166 6.50521 7.96721 5.82487 7.96721C5.22652 7.96721 4.75521 8.11066 4.41095 8.39756C4.07487 8.68442 3.90683 9.07786 3.90683 9.57789H0.353554C0.353554 8.80737 0.59126 8.09426 1.06667 7.43851C1.54208 6.78279 2.21421 6.27049 3.08306 5.90164C3.95192 5.5246 4.92734 5.33607 6.00931 5.33607C7.64863 5.33607 8.94782 5.75001 9.90683 6.57789C10.874 7.39755 11.3577 8.55329 11.3577 10.0451V15.8115C11.3658 17.0738 11.5421 18.0287 11.8864 18.6762V18.8852H8.2962ZM5.35765 16.414C5.88223 16.414 6.36585 16.2992 6.80847 16.0697C7.25109 15.832 7.57895 15.5164 7.79208 15.123V12.8361H6.46421C4.68553 12.8361 3.7388 13.4508 3.62405 14.6803L3.61175 14.8894C3.61175 15.332 3.76749 15.6967 4.07896 15.9836C4.39045 16.2705 4.81667 16.414 5.35765 16.414ZM15.8228 18.8852H12.2572V0H15.8228V18.8852ZM28.7222 12.3565C28.7222 14.4057 28.255 16.0492 27.3206 17.2869C26.3944 18.5164 25.1403 19.1311 23.5583 19.1311C22.214 19.1311 21.128 18.6639 20.3001 17.7295V24H16.7468V5.58197H20.0419L20.1649 6.88525C21.0255 5.85246 22.1485 5.33607 23.5337 5.33607C25.1731 5.33607 26.4477 5.94264 27.3575 7.15574C28.2673 8.36884 28.7222 10.041 28.7222 12.1721V12.3565ZM25.169 12.0984C25.169 10.8607 24.9477 9.90574 24.505 9.23363C24.0706 8.56147 23.4354 8.22539 22.5993 8.22539C21.4846 8.22539 20.7182 8.65165 20.3001 9.50408V14.9508C20.7345 15.8279 21.5091 16.2664 22.6239 16.2664C24.3206 16.2664 25.169 14.877 25.169 12.0984ZM36.1259 15.209C36.1259 14.7746 35.9086 14.4344 35.4742 14.1885C35.048 13.9344 34.3594 13.709 33.4086 13.5123C30.2447 12.8483 28.6627 11.5041 28.6627 9.47953C28.6627 8.2992 29.1504 7.31559 30.1258 6.52871C31.1095 5.7336 32.3922 5.33607 33.9742 5.33607C35.6627 5.33607 37.0111 5.7336 38.0193 6.52871C39.0357 7.32378 39.5437 8.35656 39.5437 9.62707H35.9906C35.9906 9.11886 35.8267 8.70083 35.4988 8.37293C35.1709 8.03689 34.6586 7.86885 33.9619 7.86885C33.3636 7.86885 32.9004 8.00412 32.5725 8.27457C32.2447 8.5451 32.0807 8.88936 32.0807 9.30736C32.0807 9.7008 32.2652 10.0205 32.634 10.2664C33.0111 10.5041 33.6422 10.7131 34.5275 10.8934C35.4127 11.0656 36.1586 11.2623 36.7652 11.4836C38.6422 12.1721 39.5807 13.3648 39.5807 15.0615C39.5807 16.2746 39.0603 17.2582 38.0193 18.0123C36.9783 18.7582 35.634 19.1311 33.9865 19.1311C32.8718 19.1311 31.8799 18.9344 31.0111 18.541C30.1504 18.1394 29.4742 17.5943 28.9824 16.9058C28.4906 16.209 28.2447 15.459 28.2447 14.6557H31.6135C31.6463 15.2869 31.8799 15.7705 32.3144 16.1066C32.7488 16.4426 33.3308 16.6107 34.0603 16.6107C34.7406 16.6107 35.2529 16.4836 35.5971 16.2295C35.9496 15.9672 36.1259 15.6271 36.1259 15.209Z" fill="#241D1F"/>
</g>
<path d="M57.1777 6.88L53.4977 13.968V18H51.6737V13.968L47.9777 6.88H50.0097L52.5857 12.336L55.1617 6.88H57.1777ZM62.4492 18.144C61.6172 18.144 60.8652 17.9573 60.1932 17.584C59.5212 17.2 58.9932 16.6667 58.6092 15.984C58.2252 15.2907 58.0332 14.4907 58.0332 13.584C58.0332 12.688 58.2305 11.8933 58.6252 11.2C59.0198 10.5067 59.5585 9.97333 60.2412 9.6C60.9238 9.22667 61.6865 9.04 62.5292 9.04C63.3718 9.04 64.1345 9.22667 64.8172 9.6C65.4998 9.97333 66.0385 10.5067 66.4332 11.2C66.8278 11.8933 67.0252 12.688 67.0252 13.584C67.0252 14.48 66.8225 15.2747 66.4172 15.968C66.0118 16.6613 65.4572 17.2 64.7532 17.584C64.0598 17.9573 63.2918 18.144 62.4492 18.144ZM62.4492 16.56C62.9185 16.56 63.3558 16.448 63.7612 16.224C64.1772 16 64.5132 15.664 64.7692 15.216C65.0252 14.768 65.1532 14.224 65.1532 13.584C65.1532 12.944 65.0305 12.4053 64.7852 11.968C64.5398 11.52 64.2145 11.184 63.8092 10.96C63.4038 10.736 62.9665 10.624 62.4972 10.624C62.0278 10.624 61.5905 10.736 61.1852 10.96C60.7905 11.184 60.4758 11.52 60.2412 11.968C60.0065 12.4053 59.8892 12.944 59.8892 13.584C59.8892 14.5333 60.1292 15.2693 60.6092 15.792C61.0998 16.304 61.7132 16.56 62.4492 16.56ZM76.8123 9.184V18H74.9883V16.96C74.7003 17.3227 74.3216 17.6107 73.8523 17.824C73.3936 18.0267 72.903 18.128 72.3803 18.128C71.687 18.128 71.063 17.984 70.5083 17.696C69.9643 17.408 69.5323 16.9813 69.2123 16.416C68.903 15.8507 68.7483 15.168 68.7483 14.368V9.184H70.5563V14.096C70.5563 14.8853 70.7536 15.4933 71.1483 15.92C71.543 16.336 72.0816 16.544 72.7643 16.544C73.447 16.544 73.9856 16.336 74.3803 15.92C74.7856 15.4933 74.9883 14.8853 74.9883 14.096V9.184H76.8123ZM81.0429 10.464C81.3096 10.016 81.6616 9.66933 82.0989 9.424C82.5469 9.168 83.0749 9.04 83.6829 9.04V10.928H83.2189C82.5043 10.928 81.9603 11.1093 81.5869 11.472C81.2243 11.8347 81.0429 12.464 81.0429 13.36V18H79.2189V9.184H81.0429V10.464ZM91.3398 6.16V18H89.5158V6.16H91.3398ZM94.6625 8.016C94.3319 8.016 94.0545 7.904 93.8305 7.68C93.6065 7.456 93.4945 7.17867 93.4945 6.848C93.4945 6.51733 93.6065 6.24 93.8305 6.016C94.0545 5.792 94.3319 5.68 94.6625 5.68C94.9825 5.68 95.2545 5.792 95.4785 6.016C95.7025 6.24 95.8145 6.51733 95.8145 6.848C95.8145 7.17867 95.7025 7.456 95.4785 7.68C95.2545 7.904 94.9825 8.016 94.6625 8.016ZM95.5585 9.184V18H93.7345V9.184H95.5585ZM101.649 10.672H100.017V18H98.1773V10.672H97.1373V9.184H98.1773V8.56C98.1773 7.54667 98.444 6.81067 98.9773 6.352C99.5213 5.88267 100.369 5.648 101.521 5.648V7.168C100.967 7.168 100.577 7.27467 100.353 7.488C100.129 7.69067 100.017 8.048 100.017 8.56V9.184H101.649V10.672ZM111.346 13.376C111.346 13.7067 111.324 14.0053 111.282 14.272H104.546C104.599 14.976 104.86 15.5413 105.33 15.968C105.799 16.3947 106.375 16.608 107.058 16.608C108.039 16.608 108.732 16.1973 109.138 15.376H111.106C110.839 16.1867 110.354 16.8533 109.65 17.376C108.956 17.888 108.092 18.144 107.058 18.144C106.215 18.144 105.458 17.9573 104.786 17.584C104.124 17.2 103.602 16.6667 103.218 15.984C102.844 15.2907 102.658 14.4907 102.658 13.584C102.658 12.6773 102.839 11.8827 103.202 11.2C103.575 10.5067 104.092 9.97333 104.754 9.6C105.426 9.22667 106.194 9.04 107.058 9.04C107.89 9.04 108.631 9.22133 109.282 9.584C109.932 9.94667 110.439 10.4587 110.802 11.12C111.164 11.7707 111.346 12.5227 111.346 13.376ZM109.442 12.8C109.431 12.128 109.191 11.5893 108.722 11.184C108.252 10.7787 107.671 10.576 106.978 10.576C106.348 10.576 105.81 10.7787 105.362 11.184C104.914 11.5787 104.647 12.1173 104.562 12.8H109.442ZM116.341 18.144C115.647 18.144 115.023 18.0213 114.469 17.776C113.925 17.52 113.493 17.1787 113.173 16.752C112.853 16.3147 112.682 15.8293 112.661 15.296H114.549C114.581 15.6693 114.757 15.984 115.077 16.24C115.407 16.4853 115.818 16.608 116.309 16.608C116.821 16.608 117.215 16.512 117.493 16.32C117.781 16.1173 117.925 15.8613 117.925 15.552C117.925 15.2213 117.765 14.976 117.445 14.816C117.135 14.656 116.639 14.48 115.957 14.288C115.295 14.1067 114.757 13.9307 114.341 13.76C113.925 13.5893 113.562 13.328 113.253 12.976C112.954 12.624 112.805 12.16 112.805 11.584C112.805 11.1147 112.943 10.688 113.221 10.304C113.498 9.90933 113.893 9.6 114.405 9.376C114.927 9.152 115.525 9.04 116.197 9.04C117.199 9.04 118.005 9.296 118.613 9.808C119.231 10.3093 119.562 10.9973 119.605 11.872H117.781C117.749 11.4773 117.589 11.1627 117.301 10.928C117.013 10.6933 116.623 10.576 116.133 10.576C115.653 10.576 115.285 10.6667 115.029 10.848C114.773 11.0293 114.645 11.2693 114.645 11.568C114.645 11.8027 114.73 12 114.901 12.16C115.071 12.32 115.279 12.448 115.525 12.544C115.77 12.6293 116.133 12.7413 116.613 12.88C117.253 13.0507 117.775 13.2267 118.181 13.408C118.597 13.5787 118.954 13.8347 119.253 14.176C119.551 14.5173 119.706 14.9707 119.717 15.536C119.717 16.0373 119.578 16.4853 119.301 16.88C119.023 17.2747 118.629 17.584 118.117 17.808C117.615 18.032 117.023 18.144 116.341 18.144ZM123.816 10.672V15.552C123.816 15.8827 123.89 16.1227 124.04 16.272C124.2 16.4107 124.466 16.48 124.84 16.48H125.96V18H124.52C123.698 18 123.069 17.808 122.632 17.424C122.194 17.04 121.976 16.416 121.976 15.552V10.672H120.936V9.184H121.976V6.992H123.816V9.184H125.96V10.672H123.816ZM135.577 9.184L130.169 22.144H128.281L130.073 17.856L126.601 9.184H128.633L131.113 15.904L133.689 9.184H135.577ZM138.777 6.16V18H136.953V6.16H138.777ZM149.252 13.376C149.252 13.7067 149.231 14.0053 149.188 14.272H142.452C142.505 14.976 142.767 15.5413 143.236 15.968C143.705 16.3947 144.281 16.608 144.964 16.608C145.945 16.608 146.639 16.1973 147.044 15.376H149.012C148.745 16.1867 148.26 16.8533 147.556 17.376C146.863 17.888 145.999 18.144 144.964 18.144C144.121 18.144 143.364 17.9573 142.692 17.584C142.031 17.2 141.508 16.6667 141.124 15.984C140.751 15.2907 140.564 14.4907 140.564 13.584C140.564 12.6773 140.745 11.8827 141.108 11.2C141.481 10.5067 141.999 9.97333 142.66 9.6C143.332 9.22667 144.1 9.04 144.964 9.04C145.796 9.04 146.537 9.22133 147.188 9.584C147.839 9.94667 148.345 10.4587 148.708 11.12C149.071 11.7707 149.252 12.5227 149.252 13.376ZM147.348 12.8C147.337 12.128 147.097 11.5893 146.628 11.184C146.159 10.7787 145.577 10.576 144.884 10.576C144.255 10.576 143.716 10.7787 143.268 11.184C142.82 11.5787 142.553 12.1173 142.468 12.8H147.348ZM154.595 13.584C154.595 12.6773 154.777 11.8827 155.139 11.2C155.513 10.5067 156.025 9.97333 156.675 9.6C157.326 9.22667 158.073 9.04 158.915 9.04C159.982 9.04 160.862 9.296 161.555 9.808C162.259 10.3093 162.734 11.0293 162.979 11.968H161.011C160.851 11.5307 160.595 11.1893 160.243 10.944C159.891 10.6987 159.449 10.576 158.915 10.576C158.169 10.576 157.571 10.8427 157.123 11.376C156.686 11.8987 156.467 12.6347 156.467 13.584C156.467 14.5333 156.686 15.2747 157.123 15.808C157.571 16.3413 158.169 16.608 158.915 16.608C159.971 16.608 160.67 16.144 161.011 15.216H162.979C162.723 16.112 162.243 16.8267 161.539 17.36C160.835 17.8827 159.961 18.144 158.915 18.144C158.073 18.144 157.326 17.9573 156.675 17.584C156.025 17.2 155.513 16.6667 155.139 15.984C154.777 15.2907 154.595 14.4907 154.595 13.584ZM168.621 18.144C167.789 18.144 167.037 17.9573 166.365 17.584C165.693 17.2 165.165 16.6667 164.781 15.984C164.397 15.2907 164.205 14.4907 164.205 13.584C164.205 12.688 164.402 11.8933 164.797 11.2C165.192 10.5067 165.73 9.97333 166.413 9.6C167.096 9.22667 167.858 9.04 168.701 9.04C169.544 9.04 170.306 9.22667 170.989 9.6C171.672 9.97333 172.21 10.5067 172.605 11.2C173 11.8933 173.197 12.688 173.197 13.584C173.197 14.48 172.994 15.2747 172.589 15.968C172.184 16.6613 171.629 17.2 170.925 17.584C170.232 17.9573 169.464 18.144 168.621 18.144ZM168.621 16.56C169.09 16.56 169.528 16.448 169.933 16.224C170.349 16 170.685 15.664 170.941 15.216C171.197 14.768 171.325 14.224 171.325 13.584C171.325 12.944 171.202 12.4053 170.957 11.968C170.712 11.52 170.386 11.184 169.981 10.96C169.576 10.736 169.138 10.624 168.669 10.624C168.2 10.624 167.762 10.736 167.357 10.96C166.962 11.184 166.648 11.52 166.413 11.968C166.178 12.4053 166.061 12.944 166.061 13.584C166.061 14.5333 166.301 15.2693 166.781 15.792C167.272 16.304 167.885 16.56 168.621 16.56ZM185.672 9.04C186.366 9.04 186.984 9.184 187.528 9.472C188.083 9.76 188.515 10.1867 188.824 10.752C189.144 11.3173 189.304 12 189.304 12.8V18H187.496V13.072C187.496 12.2827 187.299 11.68 186.904 11.264C186.51 10.8373 185.971 10.624 185.288 10.624C184.606 10.624 184.062 10.8373 183.656 11.264C183.262 11.68 183.064 12.2827 183.064 13.072V18H181.256V13.072C181.256 12.2827 181.059 11.68 180.664 11.264C180.27 10.8373 179.731 10.624 179.048 10.624C178.366 10.624 177.822 10.8373 177.416 11.264C177.022 11.68 176.824 12.2827 176.824 13.072V18H175V9.184H176.824V10.192C177.123 9.82933 177.502 9.54667 177.96 9.344C178.419 9.14133 178.91 9.04 179.432 9.04C180.136 9.04 180.766 9.18933 181.32 9.488C181.875 9.78667 182.302 10.2187 182.6 10.784C182.867 10.2507 183.283 9.82933 183.848 9.52C184.414 9.2 185.022 9.04 185.672 9.04ZM193.449 10.48C193.759 10.0747 194.18 9.73333 194.713 9.456C195.247 9.17867 195.849 9.04 196.521 9.04C197.289 9.04 197.988 9.232 198.617 9.616C199.257 9.98933 199.759 10.5173 200.121 11.2C200.484 11.8827 200.665 12.6667 200.665 13.552C200.665 14.4373 200.484 15.232 200.121 15.936C199.759 16.6293 199.257 17.1733 198.617 17.568C197.988 17.952 197.289 18.144 196.521 18.144C195.849 18.144 195.252 18.0107 194.729 17.744C194.207 17.4667 193.78 17.1253 193.449 16.72V22.192H191.625V9.184H193.449V10.48ZM198.809 13.552C198.809 12.944 198.681 12.4213 198.425 11.984C198.18 11.536 197.849 11.2 197.433 10.976C197.028 10.7413 196.591 10.624 196.121 10.624C195.663 10.624 195.225 10.7413 194.809 10.976C194.404 11.2107 194.073 11.552 193.817 12C193.572 12.448 193.449 12.976 193.449 13.584C193.449 14.192 193.572 14.7253 193.817 15.184C194.073 15.632 194.404 15.9733 194.809 16.208C195.225 16.4427 195.663 16.56 196.121 16.56C196.591 16.56 197.028 16.4427 197.433 16.208C197.849 15.9627 198.18 15.6107 198.425 15.152C198.681 14.6933 198.809 14.16 198.809 13.552ZM201.861 13.552C201.861 12.6667 202.042 11.8827 202.405 11.2C202.778 10.5173 203.28 9.98933 203.909 9.616C204.549 9.232 205.253 9.04 206.021 9.04C206.714 9.04 207.317 9.17867 207.829 9.456C208.352 9.72267 208.768 10.0587 209.077 10.464V9.184H210.917V18H209.077V16.688C208.768 17.104 208.346 17.4507 207.813 17.728C207.28 18.0053 206.672 18.144 205.989 18.144C205.232 18.144 204.538 17.952 203.909 17.568C203.28 17.1733 202.778 16.6293 202.405 15.936C202.042 15.232 201.861 14.4373 201.861 13.552ZM209.077 13.584C209.077 12.976 208.949 12.448 208.693 12C208.448 11.552 208.122 11.2107 207.717 10.976C207.312 10.7413 206.874 10.624 206.405 10.624C205.936 10.624 205.498 10.7413 205.093 10.976C204.688 11.2 204.357 11.536 204.101 11.984C203.856 12.4213 203.733 12.944 203.733 13.552C203.733 14.16 203.856 14.6933 204.101 15.152C204.357 15.6107 204.688 15.9627 205.093 16.208C205.509 16.4427 205.946 16.56 206.405 16.56C206.874 16.56 207.312 16.4427 207.717 16.208C208.122 15.9733 208.448 15.632 208.693 15.184C208.949 14.7253 209.077 14.192 209.077 13.584ZM217.761 9.04C218.454 9.04 219.073 9.184 219.617 9.472C220.171 9.76 220.603 10.1867 220.913 10.752C221.222 11.3173 221.377 12 221.377 12.8V18H219.569V13.072C219.569 12.2827 219.371 11.68 218.977 11.264C218.582 10.8373 218.043 10.624 217.361 10.624C216.678 10.624 216.134 10.8373 215.729 11.264C215.334 11.68 215.137 12.2827 215.137 13.072V18H213.313V9.184H215.137V10.192C215.435 9.82933 215.814 9.54667 216.273 9.344C216.742 9.14133 217.238 9.04 217.761 9.04ZM224.631 8.016C224.301 8.016 224.023 7.904 223.799 7.68C223.575 7.456 223.463 7.17867 223.463 6.848C223.463 6.51733 223.575 6.24 223.799 6.016C224.023 5.792 224.301 5.68 224.631 5.68C224.951 5.68 225.223 5.792 225.447 6.016C225.671 6.24 225.783 6.51733 225.783 6.848C225.783 7.17867 225.671 7.456 225.447 7.68C225.223 7.904 224.951 8.016 224.631 8.016ZM225.527 9.184V18H223.703V9.184H225.527ZM231.746 18.144C230.914 18.144 230.162 17.9573 229.49 17.584C228.818 17.2 228.29 16.6667 227.906 15.984C227.522 15.2907 227.33 14.4907 227.33 13.584C227.33 12.688 227.527 11.8933 227.922 11.2C228.317 10.5067 228.855 9.97333 229.538 9.6C230.221 9.22667 230.983 9.04 231.826 9.04C232.669 9.04 233.431 9.22667 234.114 9.6C234.797 9.97333 235.335 10.5067 235.73 11.2C236.125 11.8933 236.322 12.688 236.322 13.584C236.322 14.48 236.119 15.2747 235.714 15.968C235.309 16.6613 234.754 17.2 234.05 17.584C233.357 17.9573 232.589 18.144 231.746 18.144ZM231.746 16.56C232.215 16.56 232.653 16.448 233.058 16.224C233.474 16 233.81 15.664 234.066 15.216C234.322 14.768 234.45 14.224 234.45 13.584C234.45 12.944 234.327 12.4053 234.082 11.968C233.837 11.52 233.511 11.184 233.106 10.96C232.701 10.736 232.263 10.624 231.794 10.624C231.325 10.624 230.887 10.736 230.482 10.96C230.087 11.184 229.773 11.52 229.538 11.968C229.303 12.4053 229.186 12.944 229.186 13.584C229.186 14.5333 229.426 15.2693 229.906 15.792C230.397 16.304 231.01 16.56 231.746 16.56ZM242.573 9.04C243.267 9.04 243.885 9.184 244.429 9.472C244.984 9.76 245.416 10.1867 245.725 10.752C246.035 11.3173 246.189 12 246.189 12.8V18H244.381V13.072C244.381 12.2827 244.184 11.68 243.789 11.264C243.395 10.8373 242.856 10.624 242.173 10.624C241.491 10.624 240.947 10.8373 240.541 11.264C240.147 11.68 239.949 12.2827 239.949 13.072V18H238.125V9.184H239.949V10.192C240.248 9.82933 240.627 9.54667 241.085 9.344C241.555 9.14133 242.051 9.04 242.573 9.04Z" fill="black"/>
<defs>
<clipPath id="clip0_3_40">
<rect width="39.7377" height="24" fill="white"/>
</clipPath>
</defs>
</svg>
