<svg width="32" height="22" viewBox="0 0 32 22" fill="none" xmlns="http://www.w3.org/2000/svg">
<path d="M29.5625 0.309204H2.4375C1.36896 0.309204 0.5 1.17816 0.5 2.2467C0.5 3.31524 1.36896 4.1842 2.4375 4.1842H29.5625C30.6306 4.1842 31.5 3.31524 31.5 2.2467C31.5 1.17816 30.6306 0.309204 29.5625 0.309204ZM29.5625 9.0625H2.4375C1.36896 9.0625 0.5 9.93146 0.5 11C0.5 12.0685 1.36896 12.9375 2.4375 12.9375H29.5625C30.6306 12.9375 31.5 12.0685 31.5 11C31.5 9.93146 30.6306 9.0625 29.5625 9.0625ZM29.5625 17.8158H2.4375C1.36896 17.8158 0.5 18.6847 0.5 19.7533C0.5 20.8218 1.36896 21.6908 2.4375 21.6908H29.5625C30.6306 21.6908 31.5 20.8218 31.5 19.7533C31.5 18.6847 30.6306 17.8158 29.5625 17.8158Z" fill="#241D1F"/>
</svg>
