<svg width="20" height="21" viewBox="0 0 20 21" fill="none" xmlns="http://www.w3.org/2000/svg">
<path d="M19.8779 19.5421L14.0681 13.6058C15.17 12.2157 15.8334 10.4485 15.8334 8.52448C15.8334 4.0642 12.2819 0.435425 7.91666 0.435425C3.55142 0.435425 0 4.0642 0 8.52448C0 12.9848 3.55146 16.6135 7.9167 16.6135C9.79975 16.6135 11.5293 15.9357 12.8897 14.8098L18.6996 20.7462C18.8624 20.9124 19.1261 20.9124 19.2889 20.7462L19.878 20.1442C20.0407 19.9779 20.0407 19.7084 19.8779 19.5421ZM7.9167 14.9106C4.47025 14.9106 1.66668 12.046 1.66668 8.52448C1.66668 5.00299 4.47025 2.13839 7.9167 2.13839C11.3632 2.13839 14.1667 5.00299 14.1667 8.52448C14.1667 12.046 11.3632 14.9106 7.9167 14.9106Z" fill="#241D1F" fill-opacity="0.7"/>
</svg>
