<svg width="242" height="24" viewBox="0 0 242 24" fill="none" xmlns="http://www.w3.org/2000/svg">
<path d="M5.056 18.112C4.23467 18.112 3.49867 17.9787 2.848 17.712C2.19733 17.4453 1.67467 17.0507 1.28 16.528C0.896 16.0053 0.693333 15.376 0.672 14.64H3.584C3.62667 15.056 3.77067 15.376 4.016 15.6C4.26133 15.8133 4.58133 15.92 4.976 15.92C5.38133 15.92 5.70133 15.8293 5.936 15.648C6.17067 15.456 6.288 15.1947 6.288 14.864C6.288 14.5867 6.192 14.3573 6 14.176C5.81867 13.9947 5.58933 13.8453 5.312 13.728C5.04533 13.6107 4.66133 13.4773 4.16 13.328C3.43467 13.104 2.84267 12.88 2.384 12.656C1.92533 12.432 1.53067 12.1013 1.2 11.664C0.869333 11.2267 0.704 10.656 0.704 9.952C0.704 8.90667 1.08267 8.09067 1.84 7.504C2.59733 6.90667 3.584 6.608 4.8 6.608C6.03733 6.608 7.03467 6.90667 7.792 7.504C8.54933 8.09067 8.95467 8.912 9.008 9.968H6.048C6.02667 9.60533 5.89333 9.32267 5.648 9.12C5.40267 8.90667 5.088 8.8 4.704 8.8C4.37333 8.8 4.10667 8.89067 3.904 9.072C3.70133 9.24267 3.6 9.49333 3.6 9.824C3.6 10.1867 3.77067 10.4693 4.112 10.672C4.45333 10.8747 4.98667 11.0933 5.712 11.328C6.43733 11.5733 7.024 11.808 7.472 12.032C7.93067 12.256 8.32533 12.5813 8.656 13.008C8.98667 13.4347 9.152 13.984 9.152 14.656C9.152 15.296 8.98667 15.8773 8.656 16.4C8.336 16.9227 7.86667 17.3387 7.248 17.648C6.62933 17.9573 5.89867 18.112 5.056 18.112ZM19.6518 9.072V18H16.9158V16.784C16.6384 17.1787 16.2598 17.4987 15.7798 17.744C15.3104 17.9787 14.7878 18.096 14.2118 18.096C13.5291 18.096 12.9264 17.9467 12.4038 17.648C11.8811 17.3387 11.4758 16.896 11.1878 16.32C10.8998 15.744 10.7558 15.0667 10.7558 14.288V9.072H13.4758V13.92C13.4758 14.5173 13.6304 14.9813 13.9398 15.312C14.2491 15.6427 14.6651 15.808 15.1878 15.808C15.7211 15.808 16.1424 15.6427 16.4518 15.312C16.7611 14.9813 16.9158 14.5173 16.9158 13.92V9.072H19.6518ZM24.353 10.336C24.609 9.92 24.977 9.584 25.457 9.328C25.937 9.072 26.4863 8.944 27.105 8.944C27.841 8.944 28.5077 9.13067 29.105 9.504C29.7023 9.87733 30.1717 10.4107 30.513 11.104C30.865 11.7973 31.041 12.6027 31.041 13.52C31.041 14.4373 30.865 15.248 30.513 15.952C30.1717 16.6453 29.7023 17.184 29.105 17.568C28.5077 17.9413 27.841 18.128 27.105 18.128C26.4757 18.128 25.9263 18.0053 25.457 17.76C24.9877 17.504 24.6197 17.168 24.353 16.752V18H21.617V6.16H24.353V10.336ZM28.257 13.52C28.257 12.8373 28.065 12.304 27.681 11.92C27.3077 11.5253 26.8437 11.328 26.289 11.328C25.745 11.328 25.281 11.5253 24.897 11.92C24.5237 12.3147 24.337 12.8533 24.337 13.536C24.337 14.2187 24.5237 14.7573 24.897 15.152C25.281 15.5467 25.745 15.744 26.289 15.744C26.833 15.744 27.297 15.5467 27.681 15.152C28.065 14.7467 28.257 14.2027 28.257 13.52ZM36.1084 18.128C35.3297 18.128 34.6364 17.9947 34.0284 17.728C33.4204 17.4613 32.9404 17.0987 32.5884 16.64C32.2364 16.1707 32.039 15.648 31.9964 15.072H34.7004C34.7324 15.3813 34.8764 15.632 35.1324 15.824C35.3884 16.016 35.703 16.112 36.0764 16.112C36.4177 16.112 36.679 16.048 36.8604 15.92C37.0524 15.7813 37.1484 15.6053 37.1484 15.392C37.1484 15.136 37.015 14.9493 36.7484 14.832C36.4817 14.704 36.0497 14.5653 35.4524 14.416C34.8124 14.2667 34.279 14.112 33.8524 13.952C33.4257 13.7813 33.0577 13.52 32.7484 13.168C32.439 12.8053 32.2844 12.32 32.2844 11.712C32.2844 11.2 32.423 10.736 32.7004 10.32C32.9884 9.89333 33.4044 9.55733 33.9484 9.312C34.503 9.06667 35.159 8.944 35.9164 8.944C37.0364 8.944 37.9164 9.22133 38.5564 9.776C39.207 10.3307 39.5804 11.0667 39.6764 11.984H37.1484C37.1057 11.6747 36.967 11.4293 36.7324 11.248C36.5084 11.0667 36.2097 10.976 35.8364 10.976C35.5164 10.976 35.271 11.04 35.1004 11.168C34.9297 11.2853 34.8444 11.4507 34.8444 11.664C34.8444 11.92 34.9777 12.112 35.2444 12.24C35.5217 12.368 35.9484 12.496 36.5244 12.624C37.1857 12.7947 37.7244 12.9653 38.1404 13.136C38.5564 13.296 38.919 13.5627 39.2284 13.936C39.5484 14.2987 39.7137 14.7893 39.7244 15.408C39.7244 15.9307 39.575 16.4 39.2764 16.816C38.9884 17.2213 38.567 17.5413 38.0124 17.776C37.4684 18.0107 36.8337 18.128 36.1084 18.128ZM40.8543 13.536C40.8543 12.608 41.0409 11.7973 41.4143 11.104C41.7983 10.4107 42.3263 9.87733 42.9983 9.504C43.6809 9.13067 44.4596 8.944 45.3343 8.944C46.4543 8.944 47.3876 9.23733 48.1343 9.824C48.8916 10.4107 49.3876 11.2373 49.6223 12.304H46.7103C46.4649 11.6213 45.9903 11.28 45.2863 11.28C44.7849 11.28 44.3849 11.4773 44.0863 11.872C43.7876 12.256 43.6383 12.8107 43.6383 13.536C43.6383 14.2613 43.7876 14.8213 44.0863 15.216C44.3849 15.6 44.7849 15.792 45.2863 15.792C45.9903 15.792 46.4649 15.4507 46.7103 14.768H49.6223C49.3876 15.8133 48.8916 16.6347 48.1343 17.232C47.3769 17.8293 46.4436 18.128 45.3343 18.128C44.4596 18.128 43.6809 17.9413 42.9983 17.568C42.3263 17.1947 41.7983 16.6613 41.4143 15.968C41.0409 15.2747 40.8543 14.464 40.8543 13.536ZM53.8218 10.56C54.1418 10.0693 54.5418 9.68533 55.0218 9.408C55.5018 9.12 56.0351 8.976 56.6218 8.976V11.872H55.8698C55.1871 11.872 54.6751 12.0213 54.3338 12.32C53.9924 12.608 53.8218 13.12 53.8218 13.856V18H51.0858V9.072H53.8218V10.56ZM59.3055 8.144C58.8255 8.144 58.4308 8.00533 58.1215 7.728C57.8228 7.44 57.6735 7.088 57.6735 6.672C57.6735 6.24533 57.8228 5.89333 58.1215 5.616C58.4308 5.328 58.8255 5.184 59.3055 5.184C59.7748 5.184 60.1588 5.328 60.4575 5.616C60.7668 5.89333 60.9215 6.24533 60.9215 6.672C60.9215 7.088 60.7668 7.44 60.4575 7.728C60.1588 8.00533 59.7748 8.144 59.3055 8.144ZM60.6655 9.072V18H57.9295V9.072H60.6655ZM65.3843 10.336C65.6403 9.92 66.0083 9.584 66.4883 9.328C66.9683 9.072 67.5176 8.944 68.1363 8.944C68.8723 8.944 69.5389 9.13067 70.1363 9.504C70.7336 9.87733 71.2029 10.4107 71.5443 11.104C71.8963 11.7973 72.0723 12.6027 72.0723 13.52C72.0723 14.4373 71.8963 15.248 71.5443 15.952C71.2029 16.6453 70.7336 17.184 70.1363 17.568C69.5389 17.9413 68.8723 18.128 68.1363 18.128C67.5069 18.128 66.9576 18.0053 66.4883 17.76C66.0189 17.504 65.6509 17.168 65.3843 16.752V18H62.6483V6.16H65.3843V10.336ZM69.2883 13.52C69.2883 12.8373 69.0963 12.304 68.7123 11.92C68.3389 11.5253 67.8749 11.328 67.3203 11.328C66.7763 11.328 66.3123 11.5253 65.9283 11.92C65.5549 12.3147 65.3683 12.8533 65.3683 13.536C65.3683 14.2187 65.5549 14.7573 65.9283 15.152C66.3123 15.5467 66.7763 15.744 67.3203 15.744C67.8643 15.744 68.3283 15.5467 68.7123 15.152C69.0963 14.7467 69.2883 14.2027 69.2883 13.52ZM81.9236 13.392C81.9236 13.648 81.9076 13.9147 81.8756 14.192H75.6836C75.7263 14.7467 75.9023 15.1733 76.2116 15.472C76.5316 15.76 76.921 15.904 77.3796 15.904C78.0623 15.904 78.537 15.616 78.8036 15.04H81.7156C81.5663 15.6267 81.2943 16.1547 80.8996 16.624C80.5156 17.0933 80.0303 17.4613 79.4436 17.728C78.857 17.9947 78.201 18.128 77.4756 18.128C76.601 18.128 75.8223 17.9413 75.1396 17.568C74.457 17.1947 73.9236 16.6613 73.5396 15.968C73.1556 15.2747 72.9636 14.464 72.9636 13.536C72.9636 12.608 73.1503 11.7973 73.5236 11.104C73.9076 10.4107 74.441 9.87733 75.1236 9.504C75.8063 9.13067 76.5903 8.944 77.4756 8.944C78.3396 8.944 79.1076 9.12533 79.7796 9.488C80.4516 9.85067 80.9743 10.368 81.3476 11.04C81.7316 11.712 81.9236 12.496 81.9236 13.392ZM79.1236 12.672C79.1236 12.2027 78.9636 11.8293 78.6436 11.552C78.3236 11.2747 77.9236 11.136 77.4436 11.136C76.985 11.136 76.5956 11.2693 76.2756 11.536C75.9663 11.8027 75.7743 12.1813 75.6996 12.672H79.1236ZM91.7336 15.68V18H90.3416C89.3496 18 88.5763 17.76 88.0216 17.28C87.467 16.7893 87.1896 15.9947 87.1896 14.896V11.344H86.1016V9.072H87.1896V6.896H89.9256V9.072H91.7176V11.344H89.9256V14.928C89.9256 15.1947 89.9896 15.3867 90.1176 15.504C90.2456 15.6213 90.459 15.68 90.7576 15.68H91.7336ZM97.3216 18.128C96.447 18.128 95.6576 17.9413 94.9536 17.568C94.2603 17.1947 93.711 16.6613 93.3056 15.968C92.911 15.2747 92.7136 14.464 92.7136 13.536C92.7136 12.6187 92.9163 11.8133 93.3216 11.12C93.727 10.416 94.2816 9.87733 94.9856 9.504C95.6896 9.13067 96.479 8.944 97.3536 8.944C98.2283 8.944 99.0176 9.13067 99.7216 9.504C100.426 9.87733 100.98 10.416 101.386 11.12C101.791 11.8133 101.994 12.6187 101.994 13.536C101.994 14.4533 101.786 15.264 101.37 15.968C100.964 16.6613 100.404 17.1947 99.6896 17.568C98.9856 17.9413 98.1963 18.128 97.3216 18.128ZM97.3216 15.76C97.8443 15.76 98.287 15.568 98.6496 15.184C99.023 14.8 99.2096 14.2507 99.2096 13.536C99.2096 12.8213 99.0283 12.272 98.6656 11.888C98.3136 11.504 97.8763 11.312 97.3536 11.312C96.8203 11.312 96.3776 11.504 96.0256 11.888C95.6736 12.2613 95.4976 12.8107 95.4976 13.536C95.4976 14.2507 95.6683 14.8 96.0096 15.184C96.3616 15.568 96.799 15.76 97.3216 15.76ZM118.228 8.976C119.337 8.976 120.217 9.312 120.868 9.984C121.529 10.656 121.86 11.5893 121.86 12.784V18H119.14V13.152C119.14 12.576 118.985 12.1333 118.676 11.824C118.377 11.504 117.961 11.344 117.428 11.344C116.894 11.344 116.473 11.504 116.164 11.824C115.865 12.1333 115.716 12.576 115.716 13.152V18H112.996V13.152C112.996 12.576 112.841 12.1333 112.532 11.824C112.233 11.504 111.817 11.344 111.284 11.344C110.75 11.344 110.329 11.504 110.02 11.824C109.721 12.1333 109.572 12.576 109.572 13.152V18H106.836V9.072H109.572V10.192C109.849 9.81867 110.212 9.52533 110.66 9.312C111.108 9.088 111.614 8.976 112.18 8.976C112.852 8.976 113.449 9.12 113.972 9.408C114.505 9.696 114.921 10.1067 115.22 10.64C115.529 10.1493 115.95 9.74933 116.484 9.44C117.017 9.13067 117.598 8.976 118.228 8.976ZM132.893 9.072L127.293 22.24H124.349L126.397 17.696L122.765 9.072H125.821L127.885 14.656L129.933 9.072H132.893ZM147.321 18H144.585L140.009 11.072V18H137.273V6.768H140.009L144.585 13.728V6.768H147.321V18ZM157.72 13.392C157.72 13.648 157.705 13.9147 157.673 14.192H151.481C151.523 14.7467 151.699 15.1733 152.009 15.472C152.329 15.76 152.718 15.904 153.177 15.904C153.859 15.904 154.334 15.616 154.601 15.04H157.513C157.363 15.6267 157.091 16.1547 156.697 16.624C156.313 17.0933 155.827 17.4613 155.241 17.728C154.654 17.9947 153.998 18.128 153.273 18.128C152.398 18.128 151.619 17.9413 150.937 17.568C150.254 17.1947 149.721 16.6613 149.337 15.968C148.953 15.2747 148.761 14.464 148.761 13.536C148.761 12.608 148.947 11.7973 149.321 11.104C149.705 10.4107 150.238 9.87733 150.921 9.504C151.603 9.13067 152.387 8.944 153.273 8.944C154.137 8.944 154.905 9.12533 155.577 9.488C156.249 9.85067 156.771 10.368 157.145 11.04C157.529 11.712 157.72 12.496 157.72 13.392ZM154.921 12.672C154.921 12.2027 154.761 11.8293 154.441 11.552C154.121 11.2747 153.721 11.136 153.241 11.136C152.782 11.136 152.393 11.2693 152.073 11.536C151.763 11.8027 151.571 12.1813 151.497 12.672H154.921ZM171.98 9.072L169.564 18H166.54L165.132 12.208L163.676 18H160.668L158.236 9.072H160.972L162.236 15.456L163.74 9.072H166.636L168.156 15.424L169.404 9.072H171.98ZM176.655 18.128C175.877 18.128 175.183 17.9947 174.575 17.728C173.967 17.4613 173.487 17.0987 173.135 16.64C172.783 16.1707 172.586 15.648 172.543 15.072H175.247C175.279 15.3813 175.423 15.632 175.679 15.824C175.935 16.016 176.25 16.112 176.623 16.112C176.965 16.112 177.226 16.048 177.407 15.92C177.599 15.7813 177.695 15.6053 177.695 15.392C177.695 15.136 177.562 14.9493 177.295 14.832C177.029 14.704 176.597 14.5653 175.999 14.416C175.359 14.2667 174.826 14.112 174.399 13.952C173.973 13.7813 173.605 13.52 173.295 13.168C172.986 12.8053 172.831 12.32 172.831 11.712C172.831 11.2 172.97 10.736 173.247 10.32C173.535 9.89333 173.951 9.55733 174.495 9.312C175.05 9.06667 175.706 8.944 176.463 8.944C177.583 8.944 178.463 9.22133 179.103 9.776C179.754 10.3307 180.127 11.0667 180.223 11.984H177.695C177.653 11.6747 177.514 11.4293 177.279 11.248C177.055 11.0667 176.757 10.976 176.383 10.976C176.063 10.976 175.818 11.04 175.647 11.168C175.477 11.2853 175.391 11.4507 175.391 11.664C175.391 11.92 175.525 12.112 175.791 12.24C176.069 12.368 176.495 12.496 177.071 12.624C177.733 12.7947 178.271 12.9653 178.687 13.136C179.103 13.296 179.466 13.5627 179.775 13.936C180.095 14.2987 180.261 14.7893 180.271 15.408C180.271 15.9307 180.122 16.4 179.823 16.816C179.535 17.2213 179.114 17.5413 178.559 17.776C178.015 18.0107 177.381 18.128 176.655 18.128ZM184.681 6.16V18H181.945V6.16H184.681ZM195.08 13.392C195.08 13.648 195.064 13.9147 195.032 14.192H188.84C188.883 14.7467 189.059 15.1733 189.368 15.472C189.688 15.76 190.077 15.904 190.536 15.904C191.219 15.904 191.693 15.616 191.96 15.04H194.872C194.723 15.6267 194.451 16.1547 194.056 16.624C193.672 17.0933 193.187 17.4613 192.6 17.728C192.013 17.9947 191.357 18.128 190.632 18.128C189.757 18.128 188.979 17.9413 188.296 17.568C187.613 17.1947 187.08 16.6613 186.696 15.968C186.312 15.2747 186.12 14.464 186.12 13.536C186.12 12.608 186.307 11.7973 186.68 11.104C187.064 10.4107 187.597 9.87733 188.28 9.504C188.963 9.13067 189.747 8.944 190.632 8.944C191.496 8.944 192.264 9.12533 192.936 9.488C193.608 9.85067 194.131 10.368 194.504 11.04C194.888 11.712 195.08 12.496 195.08 13.392ZM192.28 12.672C192.28 12.2027 192.12 11.8293 191.8 11.552C191.48 11.2747 191.08 11.136 190.6 11.136C190.141 11.136 189.752 11.2693 189.432 11.536C189.123 11.8027 188.931 12.1813 188.856 12.672H192.28ZM201.499 15.68V18H200.107C199.115 18 198.342 17.76 197.787 17.28C197.233 16.7893 196.955 15.9947 196.955 14.896V11.344H195.867V9.072H196.955V6.896H199.691V9.072H201.483V11.344H199.691V14.928C199.691 15.1947 199.755 15.3867 199.883 15.504C200.011 15.6213 200.225 15.68 200.523 15.68H201.499ZM207.999 15.68V18H206.607C205.615 18 204.842 17.76 204.287 17.28C203.733 16.7893 203.455 15.9947 203.455 14.896V11.344H202.367V9.072H203.455V6.896H206.191V9.072H207.983V11.344H206.191V14.928C206.191 15.1947 206.255 15.3867 206.383 15.504C206.511 15.6213 206.725 15.68 207.023 15.68H207.999ZM217.939 13.392C217.939 13.648 217.923 13.9147 217.891 14.192H211.699C211.742 14.7467 211.918 15.1733 212.227 15.472C212.547 15.76 212.937 15.904 213.395 15.904C214.078 15.904 214.553 15.616 214.819 15.04H217.731C217.582 15.6267 217.31 16.1547 216.915 16.624C216.531 17.0933 216.046 17.4613 215.459 17.728C214.873 17.9947 214.217 18.128 213.491 18.128C212.617 18.128 211.838 17.9413 211.155 17.568C210.473 17.1947 209.939 16.6613 209.555 15.968C209.171 15.2747 208.979 14.464 208.979 13.536C208.979 12.608 209.166 11.7973 209.539 11.104C209.923 10.4107 210.457 9.87733 211.139 9.504C211.822 9.13067 212.606 8.944 213.491 8.944C214.355 8.944 215.123 9.12533 215.795 9.488C216.467 9.85067 216.99 10.368 217.363 11.04C217.747 11.712 217.939 12.496 217.939 13.392ZM215.139 12.672C215.139 12.2027 214.979 11.8293 214.659 11.552C214.339 11.2747 213.939 11.136 213.459 11.136C213.001 11.136 212.611 11.2693 212.291 11.536C211.982 11.8027 211.79 12.1813 211.715 12.672H215.139ZM222.119 10.56C222.439 10.0693 222.839 9.68533 223.319 9.408C223.799 9.12 224.332 8.976 224.919 8.976V11.872H224.167C223.484 11.872 222.972 12.0213 222.631 12.32C222.289 12.608 222.119 13.12 222.119 13.856V18H219.383V9.072H222.119V10.56ZM233.217 6.368L232.897 14.032H230.577L230.257 6.368H233.217ZM231.777 18.128C231.297 18.128 230.902 17.9893 230.593 17.712C230.294 17.424 230.145 17.072 230.145 16.656C230.145 16.2293 230.294 15.872 230.593 15.584C230.902 15.296 231.297 15.152 231.777 15.152C232.246 15.152 232.63 15.296 232.929 15.584C233.238 15.872 233.393 16.2293 233.393 16.656C233.393 17.072 233.238 17.424 232.929 17.712C232.63 17.9893 232.246 18.128 231.777 18.128ZM239.483 6.368L239.163 14.032H236.843L236.523 6.368H239.483ZM238.043 18.128C237.563 18.128 237.168 17.9893 236.859 17.712C236.56 17.424 236.411 17.072 236.411 16.656C236.411 16.2293 236.56 15.872 236.859 15.584C237.168 15.296 237.563 15.152 238.043 15.152C238.512 15.152 238.896 15.296 239.195 15.584C239.504 15.872 239.659 16.2293 239.659 16.656C239.659 17.072 239.504 17.424 239.195 17.712C238.896 17.9893 238.512 18.128 238.043 18.128Z" fill="#241D1F" fill-opacity="0.8"/>
</svg>
