<svg width="375" height="400" viewBox="0 0 375 400" fill="none" xmlns="http://www.w3.org/2000/svg">
<g clip-path="url(#clip0_29_10)">
<path d="M200.078 347.705C296.095 347.705 373.931 269.869 373.931 173.853C373.931 77.8365 296.095 0 200.078 0C104.062 0 26.2258 77.8365 26.2258 173.853C26.2258 269.869 104.062 347.705 200.078 347.705Z" fill="#F2F2F2"/>
<path d="M373.938 329.101C373.938 332.67 292.921 352.014 192.981 352.014C93.0416 352.014 12.0244 332.67 12.0244 329.101C12.0244 325.532 93.0416 331.451 192.981 331.451C292.921 331.451 373.938 325.532 373.938 329.101Z" fill="#3F3D56"/>
<path opacity="0.1" d="M373.938 329.101C373.938 332.67 292.921 352.014 192.981 352.014C93.0416 352.014 12.0244 332.67 12.0244 329.101C12.0244 325.532 93.0416 331.451 192.981 331.451C292.921 331.451 373.938 325.532 373.938 329.101Z" fill="black"/>
<path d="M192.981 335.564C292.921 335.564 373.938 332.67 373.938 329.101C373.938 325.532 292.921 322.638 192.981 322.638C93.0416 322.638 12.0244 325.532 12.0244 329.101C12.0244 332.67 93.0416 335.564 192.981 335.564Z" fill="#3F3D56"/>
<path d="M365.868 327.338V269.174" stroke="#3F3D56" stroke-width="2" stroke-miterlimit="10"/>
<path d="M365.868 277.399C370.411 277.399 374.093 273.716 374.093 269.174C374.093 264.631 370.411 260.948 365.868 260.948C361.325 260.948 357.643 264.631 357.643 269.174C357.643 273.716 361.325 277.399 365.868 277.399Z" fill="#3F3D56"/>
<path d="M365.868 305.022C365.868 305.022 364.693 279.749 340.605 282.687L365.868 305.022Z" fill="#3F3D56"/>
<path d="M33.4888 331.675V140.285" stroke="#3F3D56" stroke-width="2" stroke-miterlimit="10"/>
<path d="M33.4888 148.418C38.0315 148.418 41.7141 144.735 41.7141 140.193C41.7141 135.65 38.0315 131.967 33.4888 131.967C28.946 131.967 25.2634 135.65 25.2634 140.193C25.2634 144.735 28.946 148.418 33.4888 148.418Z" fill="#3F3D56"/>
<path d="M8.22532 288.786C12.768 288.786 16.4506 285.103 16.4506 280.56C16.4506 276.018 12.768 272.335 8.22532 272.335C3.6826 272.335 0 276.018 0 280.56C0 285.103 3.6826 288.786 8.22532 288.786Z" fill="#3F3D56"/>
<path d="M33.4888 182.208C33.4888 182.208 32.3138 156.935 8.22534 159.873L33.4888 182.208Z" fill="#3F3D56"/>
<path d="M33.4888 253.853C33.4888 253.853 32.3138 228.581 8.22534 231.518L33.4888 253.853Z" fill="#3F3D56"/>
<path d="M33.4888 329.414C33.4888 329.414 38.7766 282.91 8.22534 280.56" stroke="#3F3D56" stroke-width="2" stroke-miterlimit="10"/>
<path d="M58.7558 288.786C63.2986 288.786 66.9812 285.103 66.9812 280.56C66.9812 276.018 63.2986 272.335 58.7558 272.335C54.2131 272.335 50.5305 276.018 50.5305 280.56C50.5305 285.103 54.2131 288.786 58.7558 288.786Z" fill="#3F3D56"/>
<path d="M33.4925 329.414C33.4925 329.414 28.2047 282.91 58.7559 280.56" stroke="#3F3D56" stroke-width="2" stroke-miterlimit="10"/>
<path d="M59.2569 211.629C63.7997 211.629 67.4823 207.946 67.4823 203.404C67.4823 198.861 63.7997 195.178 59.2569 195.178C54.7142 195.178 51.0316 198.861 51.0316 203.404C51.0316 207.946 54.7142 211.629 59.2569 211.629Z" fill="#3F3D56"/>
<path d="M33.9934 252.257C33.9934 252.257 28.7057 205.754 59.2569 203.404" stroke="#3F3D56" stroke-width="2" stroke-miterlimit="10"/>
<path d="M302.603 326.163V209.834" stroke="#3F3D56" stroke-width="2" stroke-miterlimit="10"/>
<path d="M302.603 218.059C307.146 218.059 310.828 214.376 310.828 209.834C310.828 205.291 307.146 201.608 302.603 201.608C298.06 201.608 294.378 205.291 294.378 209.834C294.378 214.376 298.06 218.059 302.603 218.059Z" fill="#3F3D56"/>
<path d="M302.603 243.332C302.603 243.332 303.778 218.059 327.867 220.997L302.603 243.332Z" fill="#3F3D56"/>
<path d="M302.603 323.903C302.603 323.903 297.315 277.399 327.867 275.049" stroke="#3F3D56" stroke-width="2" stroke-miterlimit="10"/>
<path d="M327.867 283.274C332.409 283.274 336.092 279.592 336.092 275.049C336.092 270.506 332.409 266.824 327.867 266.824C323.324 266.824 319.641 270.506 319.641 275.049C319.641 279.592 323.324 283.274 327.867 283.274Z" fill="#3F3D56"/>
<path d="M239.858 312.101C261.717 312.101 279.438 294.381 279.438 272.521C279.438 250.661 261.717 232.941 239.858 232.941C217.998 232.941 200.277 250.661 200.277 272.521C200.277 294.381 217.998 312.101 239.858 312.101Z" fill="#2F2E41"/>
<path d="M245.87 325.128H257.894V303.584H245.87V325.128Z" fill="#2F2E41"/>
<path d="M221.821 325.128H233.845V303.584H221.821V325.128Z" fill="#2F2E41"/>
<path d="M227.207 330.637C232 327.869 235.044 324.169 234.006 322.372C232.968 320.575 228.242 321.361 223.449 324.128C218.657 326.895 215.613 330.595 216.65 332.393C217.688 334.19 222.414 333.404 227.207 330.637Z" fill="#2F2E41"/>
<path d="M250.755 330.637C255.547 327.869 258.591 324.169 257.554 322.372C256.516 320.575 251.79 321.361 246.997 324.128C242.204 326.895 239.16 330.595 240.198 332.393C241.236 334.19 245.962 333.404 250.755 330.637Z" fill="#2F2E41"/>
<path d="M238.856 276.028C246.327 276.028 252.383 269.972 252.383 262.501C252.383 255.03 246.327 248.973 238.856 248.973C231.385 248.973 225.328 255.03 225.328 262.501C225.328 269.972 231.385 276.028 238.856 276.028Z" fill="white"/>
<path d="M234.248 261.248C236.739 261.248 238.758 259.229 238.758 256.739C238.758 254.249 236.739 252.23 234.248 252.23C231.758 252.23 229.739 254.249 229.739 256.739C229.739 259.229 231.758 261.248 234.248 261.248Z" fill="#3F3D56"/>
<path d="M278.252 235.712C281.448 221.4 271.232 206.937 255.433 203.41C239.635 199.882 224.238 208.625 221.042 222.938C217.846 237.251 228.316 242.53 244.114 246.057C259.912 249.585 275.056 250.025 278.252 235.712Z" fill="#241D1F"/>
<path d="M223.373 266.702C224.723 263.548 217.672 257.504 207.624 253.203C197.576 248.903 188.336 247.974 186.986 251.128C185.636 254.282 192.687 260.326 202.735 264.627C212.783 268.927 222.023 269.856 223.373 266.702Z" fill="#2F2E41"/>
<path d="M297.524 293.256C298.874 290.102 291.823 284.058 281.775 279.757C271.726 275.457 262.486 274.528 261.136 277.682C259.786 280.836 266.837 286.88 276.885 291.181C286.934 295.481 296.174 296.41 297.524 293.256Z" fill="#2F2E41"/>
<path d="M247.776 289.806C247.776 292.198 246.826 294.492 245.134 296.183C243.443 297.874 241.149 298.824 238.758 298.824C236.366 298.824 234.072 297.874 232.381 296.183C230.689 294.492 229.739 292.198 229.739 289.806C229.739 284.825 233.777 283.794 238.758 283.794C243.738 283.794 247.776 284.825 247.776 289.806Z" fill="white"/>
<path d="M192.682 260.703V202.539" stroke="#241D1F" stroke-width="2" stroke-miterlimit="10"/>
<path d="M192.682 210.764C197.225 210.764 200.908 207.081 200.908 202.539C200.908 197.996 197.225 194.313 192.682 194.313C188.14 194.313 184.457 197.996 184.457 202.539C184.457 207.081 188.14 210.764 192.682 210.764Z" fill="#241D1F"/>
<path d="M192.682 238.387C192.682 238.387 191.507 213.114 167.419 216.052L192.682 238.387Z" fill="#241D1F"/>
<path d="M115.35 220.879L118.539 228.394H121.362L117.354 209.355C117.354 197.135 111.456 186.81 99.2359 186.81H99.2358C95.1383 186.81 91.2087 188.437 88.3113 191.335C85.414 194.232 83.7863 198.162 83.7863 202.259V220.931C83.7863 221.911 83.9793 222.882 84.3543 223.787C84.7294 224.692 85.2791 225.515 85.9721 226.208C86.6651 226.901 87.4878 227.451 88.3932 227.826C89.2987 228.201 90.2691 228.394 91.2492 228.394H113.158L115.35 220.879Z" fill="#2F2E41"/>
<path d="M128.684 296.457C128.684 296.457 170.268 291.447 175.278 300.465C180.288 309.483 176.781 316.998 170.268 321.507C163.755 326.017 127.682 346.558 127.682 346.558L124.676 351.568L118.162 350.566L111.649 344.554L114.655 339.043C114.655 339.043 139.706 324.013 140.207 320.004C140.207 320.004 117.16 330.526 114.655 328.522C112.15 326.518 84.0932 316.998 88.6024 311.487C93.1115 305.976 104.635 297.96 104.635 297.96L128.684 296.457Z" fill="#2F2E41"/>
<path opacity="0.1" d="M128.684 296.457C128.684 296.457 170.268 291.447 175.278 300.465C180.288 309.483 176.781 316.998 170.268 321.507C163.755 326.017 127.682 346.558 127.682 346.558L124.676 351.568L118.162 350.566L111.649 344.554L114.655 339.043C114.655 339.043 139.706 324.013 140.207 320.004C140.207 320.004 117.16 330.526 114.655 328.522C112.15 326.518 84.0932 316.998 88.6024 311.487C93.1115 305.976 104.635 297.96 104.635 297.96L128.684 296.457Z" fill="black"/>
<path d="M123.173 347.059C123.173 347.059 130.688 345.556 129.185 350.566C127.682 355.577 126.68 365.597 129.185 368.102C131.69 370.607 139.706 381.629 131.69 382.632C123.674 383.634 115.156 373.613 115.156 373.613C115.156 373.613 109.645 357.581 105.637 356.078C101.629 354.575 97.6207 348.562 99.6248 347.059C101.629 345.556 113.653 336.037 114.655 336.538C115.657 337.039 115.156 342.55 115.156 342.55C115.156 342.55 119.164 349.063 123.173 347.059Z" fill="#2F2E41"/>
<path d="M123.924 240.092L142.462 253.119C142.462 253.119 156.49 238.589 156.49 230.072C156.49 221.555 164.005 205.522 167.513 212.035C171.02 218.548 163.504 234.08 163.504 234.08L149.476 267.147C149.476 267.147 141.46 268.65 136.951 265.143C132.441 261.636 119.916 254.622 119.916 254.622L123.924 240.092Z" fill="#FFB9B9"/>
<path d="M105.637 218.298C113.385 218.298 119.665 212.017 119.665 204.27C119.665 196.522 113.385 190.241 105.637 190.241C97.8893 190.241 91.6085 196.522 91.6085 204.27C91.6085 212.017 97.8893 218.298 105.637 218.298Z" fill="#FFB9B9"/>
<path d="M112.902 214.04C112.902 214.04 107.892 227.066 109.896 230.072C111.9 233.078 114.405 233.078 116.409 234.08C117.411 234.581 127.932 238.589 127.932 241.595C127.884 243.527 127.368 245.418 126.429 247.107L124.926 255.624L112.401 263.64L95.8672 261.636L83.3417 254.622C83.3417 254.622 81.3377 236.084 86.8489 233.078C92.36 230.072 98.8733 223.058 98.3722 220.553C97.8712 218.048 97.3702 212.036 97.3702 212.036L112.902 214.04Z" fill="#FFB9B9"/>
<path d="M133.944 245.102C133.944 245.102 126.429 252.618 126.429 253.62C126.429 254.622 131.439 259.131 127.932 265.143C124.425 271.155 124.425 286.186 124.425 286.186L112.401 288.691L89.855 286.687L86.3478 252.117C86.3478 252.117 95.3661 253.62 97.3702 255.123C99.3743 256.626 104.885 253.119 108.894 253.119C112.902 253.119 124.425 251.115 124.425 251.115L123.423 247.107L127.431 240.092L133.944 245.102Z" fill="#241D1F"/>
<path d="M105.637 298.461C105.637 298.461 156.24 275.915 160.248 290.445C164.256 304.974 164.757 340.045 164.757 340.045C164.757 340.045 167.262 364.094 170.268 366.599C173.274 369.104 170.268 376.619 170.268 376.619L162.753 379.124L155.739 376.118L152.732 368.102C152.732 368.102 151.73 350.066 147.722 341.047C143.714 332.029 143.714 310.986 144.215 309.984C144.215 309.984 124.676 334.033 105.637 332.53C86.5984 331.027 83.8428 326.768 83.8428 326.768C83.8428 326.768 93.1116 298.461 105.637 298.461Z" fill="#2F2E41"/>
<path d="M167.262 369.104C167.262 369.104 169.266 362.09 173.775 367.601C178.284 373.112 198.826 381.629 199.327 382.631C199.828 383.633 208.846 389.145 198.325 396.66C187.804 404.175 173.775 396.66 173.775 396.66C173.775 396.66 161.751 392.652 158.745 393.153C155.739 393.654 149.726 390.648 149.225 388.143C148.724 385.638 149.908 363.615 152.573 365.858C155.238 368.102 158.244 374.114 158.244 374.114C158.244 374.114 168.264 376.619 167.262 369.104Z" fill="#2F2E41"/>
<path d="M122.671 284.933C122.671 284.933 125.427 284.683 124.926 291.196C124.926 291.196 107.641 296.457 104.635 300.966C101.629 305.475 88.6024 319.002 86.5983 328.522C86.5983 328.522 72.0688 325.015 80.0851 299.964L89.51 279.53C89.51 279.53 95.1156 290.946 122.671 284.933Z" fill="#2F2E41"/>
<path d="M110.879 297.11L93.8631 289.693C93.8631 289.693 85.8468 273.159 85.8468 265.143C85.7496 260.531 85.3941 255.927 84.7821 251.354C84.4034 248.478 84.7334 245.553 85.7434 242.833C86.7534 240.114 88.4127 237.683 90.577 235.751C92.3463 234.203 94.3328 233.078 96.3681 233.078C96.3681 233.078 102.38 244.1 101.378 254.121C100.376 264.141 102.881 279.172 102.881 279.172L125.52 291.288" fill="#FFB9B9"/>
<path opacity="0.1" d="M110.879 297.11L93.8631 289.693C93.8631 289.693 85.8468 273.159 85.8468 265.143C85.8468 260.968 103.382 248.61 102.38 258.63C101.378 268.65 102.881 279.172 102.881 279.172L125.52 291.288" fill="black"/>
<path d="M102.881 257.628L101.284 264.392L92.36 268.65H84.8448L81.3376 252.618C81.3376 252.618 87.5298 251.308 90.6964 252.965C93.863 254.622 101.299 255.018 101.299 255.018L102.881 257.628Z" fill="#241D1F"/>
<path d="M111.193 187.48C108.475 186.791 102.03 186.81 101.087 186.81C98.8151 186.81 96.5654 187.257 94.4664 188.127C92.3673 188.996 90.4601 190.27 88.8536 191.877C87.247 193.483 85.9727 195.391 85.1032 197.49C84.2338 199.589 83.7863 201.838 83.7863 204.11L77.2731 228.394H89.9509L92.3036 219.376L95.6437 228.394H102.026L102.574 222.975L104.734 228.394H111.843C106.519 216.348 103.687 205.367 110.682 198.59C115.405 199.233 119.389 197.968 120.038 195.407C120.786 192.457 116.826 188.907 111.193 187.48Z" fill="#2F2E41"/>
<path d="M112.624 130.768L108.736 138.288V142H106V138.288L102.112 130.768H105.216L107.392 135.472L109.552 130.768H112.624ZM117.79 142.128C116.916 142.128 116.126 141.941 115.422 141.568C114.729 141.195 114.18 140.661 113.774 139.968C113.38 139.275 113.182 138.464 113.182 137.536C113.182 136.619 113.385 135.813 113.79 135.12C114.196 134.416 114.75 133.877 115.454 133.504C116.158 133.131 116.948 132.944 117.822 132.944C118.697 132.944 119.486 133.131 120.19 133.504C120.894 133.877 121.449 134.416 121.854 135.12C122.26 135.813 122.462 136.619 122.462 137.536C122.462 138.453 122.254 139.264 121.838 139.968C121.433 140.661 120.873 141.195 120.158 141.568C119.454 141.941 118.665 142.128 117.79 142.128ZM117.79 139.76C118.313 139.76 118.756 139.568 119.118 139.184C119.492 138.8 119.678 138.251 119.678 137.536C119.678 136.821 119.497 136.272 119.134 135.888C118.782 135.504 118.345 135.312 117.822 135.312C117.289 135.312 116.846 135.504 116.494 135.888C116.142 136.261 115.966 136.811 115.966 137.536C115.966 138.251 116.137 138.8 116.478 139.184C116.83 139.568 117.268 139.76 117.79 139.76ZM132.73 133.072V142H129.994V140.784C129.717 141.179 129.338 141.499 128.858 141.744C128.389 141.979 127.866 142.096 127.29 142.096C126.607 142.096 126.005 141.947 125.482 141.648C124.959 141.339 124.554 140.896 124.266 140.32C123.978 139.744 123.834 139.067 123.834 138.288V133.072H126.554V137.92C126.554 138.517 126.709 138.981 127.018 139.312C127.327 139.643 127.743 139.808 128.266 139.808C128.799 139.808 129.221 139.643 129.53 139.312C129.839 138.981 129.994 138.517 129.994 137.92V133.072H132.73ZM137.431 134.56C137.751 134.069 138.151 133.685 138.631 133.408C139.111 133.12 139.644 132.976 140.231 132.976V135.872H139.479C138.796 135.872 138.284 136.021 137.943 136.32C137.602 136.608 137.431 137.12 137.431 137.856V142H134.695V133.072H137.431V134.56ZM147.666 139.888H151.25V142H144.93V130.768H147.666V139.888ZM153.931 132.144C153.451 132.144 153.056 132.005 152.747 131.728C152.448 131.44 152.299 131.088 152.299 130.672C152.299 130.245 152.448 129.893 152.747 129.616C153.056 129.328 153.451 129.184 153.931 129.184C154.4 129.184 154.784 129.328 155.083 129.616C155.392 129.893 155.547 130.245 155.547 130.672C155.547 131.088 155.392 131.44 155.083 131.728C154.784 132.005 154.4 132.144 153.931 132.144ZM155.291 133.072V142H152.555V133.072H155.291ZM161.753 135.344H160.281V142H157.545V135.344H156.553V133.072H157.545V132.816C157.545 131.717 157.86 130.885 158.489 130.32C159.119 129.744 160.041 129.456 161.257 129.456C161.46 129.456 161.609 129.461 161.705 129.472V131.792C161.183 131.76 160.815 131.835 160.601 132.016C160.388 132.197 160.281 132.523 160.281 132.992V133.072H161.753V135.344ZM171.455 137.392C171.455 137.648 171.439 137.915 171.407 138.192H165.215C165.258 138.747 165.434 139.173 165.743 139.472C166.063 139.76 166.452 139.904 166.911 139.904C167.594 139.904 168.068 139.616 168.335 139.04H171.247C171.098 139.627 170.826 140.155 170.431 140.624C170.047 141.093 169.562 141.461 168.975 141.728C168.388 141.995 167.732 142.128 167.007 142.128C166.132 142.128 165.354 141.941 164.671 141.568C163.988 141.195 163.455 140.661 163.071 139.968C162.687 139.275 162.495 138.464 162.495 137.536C162.495 136.608 162.682 135.797 163.055 135.104C163.439 134.411 163.972 133.877 164.655 133.504C165.338 133.131 166.122 132.944 167.007 132.944C167.871 132.944 168.639 133.125 169.311 133.488C169.983 133.851 170.506 134.368 170.879 135.04C171.263 135.712 171.455 136.496 171.455 137.392ZM168.655 136.672C168.655 136.203 168.495 135.829 168.175 135.552C167.855 135.275 167.455 135.136 166.975 135.136C166.516 135.136 166.127 135.269 165.807 135.536C165.498 135.803 165.306 136.181 165.231 136.672H168.655ZM176.53 142.128C175.752 142.128 175.058 141.995 174.45 141.728C173.842 141.461 173.362 141.099 173.01 140.64C172.658 140.171 172.461 139.648 172.418 139.072H175.122C175.154 139.381 175.298 139.632 175.554 139.824C175.81 140.016 176.125 140.112 176.498 140.112C176.84 140.112 177.101 140.048 177.282 139.92C177.474 139.781 177.57 139.605 177.57 139.392C177.57 139.136 177.437 138.949 177.17 138.832C176.904 138.704 176.472 138.565 175.874 138.416C175.234 138.267 174.701 138.112 174.274 137.952C173.848 137.781 173.48 137.52 173.17 137.168C172.861 136.805 172.706 136.32 172.706 135.712C172.706 135.2 172.845 134.736 173.122 134.32C173.41 133.893 173.826 133.557 174.37 133.312C174.925 133.067 175.581 132.944 176.338 132.944C177.458 132.944 178.338 133.221 178.978 133.776C179.629 134.331 180.002 135.067 180.098 135.984H177.57C177.528 135.675 177.389 135.429 177.154 135.248C176.93 135.067 176.632 134.976 176.258 134.976C175.938 134.976 175.693 135.04 175.522 135.168C175.352 135.285 175.266 135.451 175.266 135.664C175.266 135.92 175.4 136.112 175.666 136.24C175.944 136.368 176.37 136.496 176.946 136.624C177.608 136.795 178.146 136.965 178.562 137.136C178.978 137.296 179.341 137.563 179.65 137.936C179.97 138.299 180.136 138.789 180.146 139.408C180.146 139.931 179.997 140.4 179.698 140.816C179.41 141.221 178.989 141.541 178.434 141.776C177.89 142.011 177.256 142.128 176.53 142.128ZM186.796 139.68V142H185.404C184.412 142 183.639 141.76 183.084 141.28C182.529 140.789 182.252 139.995 182.252 138.896V135.344H181.164V133.072H182.252V130.896H184.988V133.072H186.78V135.344H184.988V138.928C184.988 139.195 185.052 139.387 185.18 139.504C185.308 139.621 185.521 139.68 185.82 139.68H186.796ZM197.44 133.072L191.84 146.24H188.896L190.944 141.696L187.312 133.072H190.368L192.432 138.656L194.48 133.072H197.44ZM201.166 130.16V142H198.43V130.16H201.166ZM211.564 137.392C211.564 137.648 211.548 137.915 211.516 138.192H205.324C205.367 138.747 205.543 139.173 205.852 139.472C206.172 139.76 206.562 139.904 207.02 139.904C207.703 139.904 208.178 139.616 208.444 139.04H211.356C211.207 139.627 210.935 140.155 210.54 140.624C210.156 141.093 209.671 141.461 209.084 141.728C208.498 141.995 207.842 142.128 207.116 142.128C206.242 142.128 205.463 141.941 204.78 141.568C204.098 141.195 203.564 140.661 203.18 139.968C202.796 139.275 202.604 138.464 202.604 137.536C202.604 136.608 202.791 135.797 203.164 135.104C203.548 134.411 204.082 133.877 204.764 133.504C205.447 133.131 206.231 132.944 207.116 132.944C207.98 132.944 208.748 133.125 209.42 133.488C210.092 133.851 210.615 134.368 210.988 135.04C211.372 135.712 211.564 136.496 211.564 137.392ZM208.764 136.672C208.764 136.203 208.604 135.829 208.284 135.552C207.964 135.275 207.564 135.136 207.084 135.136C206.626 135.136 206.236 135.269 205.916 135.536C205.607 135.803 205.415 136.181 205.34 136.672H208.764ZM215.934 136.368C215.934 135.259 216.174 134.272 216.654 133.408C217.134 132.533 217.801 131.856 218.654 131.376C219.518 130.885 220.494 130.64 221.582 130.64C222.916 130.64 224.057 130.992 225.006 131.696C225.956 132.4 226.59 133.36 226.91 134.576H223.902C223.678 134.107 223.358 133.749 222.942 133.504C222.537 133.259 222.073 133.136 221.55 133.136C220.708 133.136 220.025 133.429 219.502 134.016C218.98 134.603 218.718 135.387 218.718 136.368C218.718 137.349 218.98 138.133 219.502 138.72C220.025 139.307 220.708 139.6 221.55 139.6C222.073 139.6 222.537 139.477 222.942 139.232C223.358 138.987 223.678 138.629 223.902 138.16H226.91C226.59 139.376 225.956 140.336 225.006 141.04C224.057 141.733 222.916 142.08 221.582 142.08C220.494 142.08 219.518 141.84 218.654 141.36C217.801 140.869 217.134 140.192 216.654 139.328C216.174 138.464 215.934 137.477 215.934 136.368ZM232.65 142.128C231.775 142.128 230.986 141.941 230.282 141.568C229.588 141.195 229.039 140.661 228.634 139.968C228.239 139.275 228.042 138.464 228.042 137.536C228.042 136.619 228.244 135.813 228.65 135.12C229.055 134.416 229.61 133.877 230.314 133.504C231.018 133.131 231.807 132.944 232.682 132.944C233.556 132.944 234.346 133.131 235.05 133.504C235.754 133.877 236.308 134.416 236.714 135.12C237.119 135.813 237.322 136.619 237.322 137.536C237.322 138.453 237.114 139.264 236.698 139.968C236.292 140.661 235.732 141.195 235.018 141.568C234.314 141.941 233.524 142.128 232.65 142.128ZM232.65 139.76C233.172 139.76 233.615 139.568 233.978 139.184C234.351 138.8 234.538 138.251 234.538 137.536C234.538 136.821 234.356 136.272 233.994 135.888C233.642 135.504 233.204 135.312 232.682 135.312C232.148 135.312 231.706 135.504 231.354 135.888C231.002 136.261 230.826 136.811 230.826 137.536C230.826 138.251 230.996 138.8 231.338 139.184C231.69 139.568 232.127 139.76 232.65 139.76ZM250.165 132.976C251.275 132.976 252.155 133.312 252.805 133.984C253.467 134.656 253.797 135.589 253.797 136.784V142H251.077V137.152C251.077 136.576 250.923 136.133 250.613 135.824C250.315 135.504 249.899 135.344 249.365 135.344C248.832 135.344 248.411 135.504 248.101 135.824C247.803 136.133 247.653 136.576 247.653 137.152V142H244.933V137.152C244.933 136.576 244.779 136.133 244.469 135.824C244.171 135.504 243.755 135.344 243.221 135.344C242.688 135.344 242.267 135.504 241.957 135.824C241.659 136.133 241.509 136.576 241.509 137.152V142H238.773V133.072H241.509V134.192C241.787 133.819 242.149 133.525 242.597 133.312C243.045 133.088 243.552 132.976 244.117 132.976C244.789 132.976 245.387 133.12 245.909 133.408C246.443 133.696 246.859 134.107 247.157 134.64C247.467 134.149 247.888 133.749 248.421 133.44C248.955 133.131 249.536 132.976 250.165 132.976ZM258.447 134.336C258.713 133.92 259.081 133.584 259.551 133.328C260.02 133.072 260.569 132.944 261.199 132.944C261.935 132.944 262.601 133.131 263.199 133.504C263.796 133.877 264.265 134.411 264.607 135.104C264.959 135.797 265.135 136.603 265.135 137.52C265.135 138.437 264.959 139.248 264.607 139.952C264.265 140.645 263.796 141.184 263.199 141.568C262.601 141.941 261.935 142.128 261.199 142.128C260.58 142.128 260.031 142 259.551 141.744C259.081 141.488 258.713 141.157 258.447 140.752V146.256H255.711V133.072H258.447V134.336ZM262.351 137.52C262.351 136.837 262.159 136.304 261.775 135.92C261.401 135.525 260.937 135.328 260.383 135.328C259.839 135.328 259.375 135.525 258.991 135.92C258.617 136.315 258.431 136.853 258.431 137.536C258.431 138.219 258.617 138.757 258.991 139.152C259.375 139.547 259.839 139.744 260.383 139.744C260.927 139.744 261.391 139.547 261.775 139.152C262.159 138.747 262.351 138.203 262.351 137.52ZM266.026 137.52C266.026 136.603 266.197 135.797 266.538 135.104C266.89 134.411 267.365 133.877 267.962 133.504C268.559 133.131 269.226 132.944 269.962 132.944C270.591 132.944 271.141 133.072 271.61 133.328C272.09 133.584 272.458 133.92 272.714 134.336V133.072H275.45V142H272.714V140.736C272.447 141.152 272.074 141.488 271.594 141.744C271.125 142 270.575 142.128 269.946 142.128C269.221 142.128 268.559 141.941 267.962 141.568C267.365 141.184 266.89 140.645 266.538 139.952C266.197 139.248 266.026 138.437 266.026 137.52ZM272.714 137.536C272.714 136.853 272.522 136.315 272.138 135.92C271.765 135.525 271.306 135.328 270.762 135.328C270.218 135.328 269.754 135.525 269.37 135.92C268.997 136.304 268.81 136.837 268.81 137.52C268.81 138.203 268.997 138.747 269.37 139.152C269.754 139.547 270.218 139.744 270.762 139.744C271.306 139.744 271.765 139.547 272.138 139.152C272.522 138.757 272.714 138.219 272.714 137.536ZM282.87 132.976C283.915 132.976 284.747 133.317 285.366 134C285.995 134.672 286.31 135.6 286.31 136.784V142H283.59V137.152C283.59 136.555 283.435 136.091 283.126 135.76C282.816 135.429 282.4 135.264 281.878 135.264C281.355 135.264 280.939 135.429 280.63 135.76C280.32 136.091 280.166 136.555 280.166 137.152V142H277.43V133.072H280.166V134.256C280.443 133.861 280.816 133.552 281.286 133.328C281.755 133.093 282.283 132.976 282.87 132.976ZM289.587 132.144C289.107 132.144 288.712 132.005 288.403 131.728C288.104 131.44 287.955 131.088 287.955 130.672C287.955 130.245 288.104 129.893 288.403 129.616C288.712 129.328 289.107 129.184 289.587 129.184C290.056 129.184 290.44 129.328 290.739 129.616C291.048 129.893 291.203 130.245 291.203 130.672C291.203 131.088 291.048 131.44 290.739 131.728C290.44 132.005 290.056 132.144 289.587 132.144ZM290.947 133.072V142H288.211V133.072H290.947ZM296.994 142.128C296.119 142.128 295.33 141.941 294.626 141.568C293.932 141.195 293.383 140.661 292.978 139.968C292.583 139.275 292.386 138.464 292.386 137.536C292.386 136.619 292.588 135.813 292.993 135.12C293.399 134.416 293.954 133.877 294.658 133.504C295.362 133.131 296.151 132.944 297.026 132.944C297.9 132.944 298.69 133.131 299.394 133.504C300.098 133.877 300.652 134.416 301.058 135.12C301.463 135.813 301.666 136.619 301.666 137.536C301.666 138.453 301.458 139.264 301.042 139.968C300.636 140.661 300.076 141.195 299.362 141.568C298.658 141.941 297.868 142.128 296.994 142.128ZM296.994 139.76C297.516 139.76 297.959 139.568 298.322 139.184C298.695 138.8 298.882 138.251 298.882 137.536C298.882 136.821 298.7 136.272 298.338 135.888C297.986 135.504 297.548 135.312 297.026 135.312C296.492 135.312 296.05 135.504 295.698 135.888C295.346 136.261 295.17 136.811 295.17 137.536C295.17 138.251 295.34 138.8 295.682 139.184C296.034 139.568 296.471 139.76 296.994 139.76ZM308.557 132.976C309.602 132.976 310.434 133.317 311.053 134C311.682 134.672 311.997 135.6 311.997 136.784V142H309.277V137.152C309.277 136.555 309.122 136.091 308.813 135.76C308.504 135.429 308.088 135.264 307.565 135.264C307.042 135.264 306.626 135.429 306.317 135.76C306.008 136.091 305.853 136.555 305.853 137.152V142H303.117V133.072H305.853V134.256C306.13 133.861 306.504 133.552 306.973 133.328C307.442 133.093 307.97 132.976 308.557 132.976Z" fill="#241D1F" fill-opacity="0.8"/>
<path d="M167.29 104.148C166.707 103.011 166.284 101.597 166.022 99.9072C162.962 103.317 158.984 105.022 154.088 105.022C149.454 105.022 145.607 103.681 142.546 101C139.515 98.3187 138 94.9381 138 90.8579C138 85.8452 139.851 81.9982 143.552 79.3169C147.282 76.6357 152.659 75.2805 159.683 75.2514H165.497V72.5409C165.497 70.3553 164.929 68.6066 163.792 67.295C162.685 65.9837 160.922 65.3279 158.503 65.3279C156.375 65.3279 154.7 65.8379 153.475 66.858C152.281 67.8779 151.683 69.2768 151.683 71.0547H139.049C139.049 68.3151 139.894 65.7796 141.585 63.448C143.275 61.1166 145.665 59.2951 148.754 57.9836C151.843 56.643 155.312 55.9727 159.159 55.9727C164.987 55.9727 169.607 57.4445 173.016 60.388C176.455 63.3024 178.175 67.4117 178.175 72.7158V93.2186C178.204 97.7067 178.831 101.102 180.055 103.404V104.148H167.29ZM156.842 95.3607C158.707 95.3607 160.426 94.9527 162 94.1367C163.574 93.2915 164.739 92.1694 165.497 90.7705V82.6393H160.776C154.452 82.6393 151.086 84.8251 150.678 89.1967L150.634 89.94C150.634 91.5137 151.188 92.8105 152.295 93.8306C153.403 94.8507 154.918 95.3607 156.842 95.3607ZM194.051 104.148H181.373V37H194.051V104.148ZM239.916 80.9344C239.916 88.2204 238.254 94.0638 234.932 98.4645C231.639 102.836 227.18 105.022 221.555 105.022C216.775 105.022 212.914 103.361 209.97 100.038V122.333H197.336V56.847H209.052L209.489 61.4809C212.55 57.8087 216.542 55.9727 221.468 55.9727C227.296 55.9727 231.828 58.1294 235.063 62.4426C238.298 66.7559 239.916 72.7012 239.916 80.2787V80.9344ZM227.282 80.0164C227.282 75.6157 226.495 72.2204 224.921 69.8307C223.376 67.4408 221.118 66.2458 218.145 66.2458C214.182 66.2458 211.457 67.7614 209.97 70.7923V90.1585C211.515 93.2769 214.269 94.8361 218.233 94.8361C224.265 94.8361 227.282 89.8962 227.282 80.0164ZM266.24 91.0764C266.24 89.5319 265.467 88.3224 263.923 87.4481C262.407 86.5447 259.959 85.7432 256.578 85.0438C245.329 82.683 239.704 77.9035 239.704 70.705C239.704 66.5083 241.438 63.011 244.906 60.2132C248.404 57.3861 252.964 55.9727 258.589 55.9727C264.593 55.9727 269.387 57.3861 272.972 60.2132C276.586 63.0401 278.392 66.7122 278.392 71.2296H265.759C265.759 69.4226 265.176 67.9363 264.01 66.7704C262.844 65.5756 261.023 64.9781 258.546 64.9781C256.418 64.9781 254.771 65.4591 253.606 66.4207C252.44 67.3826 251.857 68.6066 251.857 70.0928C251.857 71.4917 252.513 72.6285 253.824 73.5028C255.165 74.3479 257.409 75.0911 260.557 75.7322C263.704 76.3443 266.356 77.0437 268.513 77.8306C275.187 80.2787 278.523 84.5192 278.523 90.5518C278.523 94.8652 276.673 98.3625 272.972 101.044C269.271 103.696 264.491 105.022 258.633 105.022C254.669 105.022 251.143 104.322 248.054 102.923C244.994 101.495 242.589 99.5574 240.841 97.1094C239.092 94.632 238.218 91.9654 238.218 89.1093H250.196C250.312 91.3534 251.143 93.0728 252.688 94.2678C254.232 95.4627 256.301 96.0602 258.895 96.0602C261.314 96.0602 263.136 95.6083 264.36 94.7049C265.613 93.7723 266.24 92.5629 266.24 91.0764Z" fill="#241D1F" fill-opacity="0.8"/>
</g>
<defs>
<clipPath id="clip0_29_10">
<rect width="374.093" height="400" fill="white"/>
</clipPath>
</defs>
</svg>
