<svg width="32" height="32" viewBox="0 0 32 32" fill="none" xmlns="http://www.w3.org/2000/svg">
<mask id="path-1-inside-1_29_6" fill="white">
<path d="M32 16C32 24.8366 24.8366 32 16 32C7.16344 32 0 24.8366 0 16C0 7.16344 7.16344 0 16 0C24.8366 0 32 7.16344 32 16Z"/>
</mask>
<path d="M16.7071 5.29289C16.3166 4.90237 15.6834 4.90237 15.2929 5.29289L8.92893 11.6569C8.53841 12.0474 8.53841 12.6805 8.92893 13.0711C9.31946 13.4616 9.95262 13.4616 10.3431 13.0711L16 7.41421L21.6569 13.0711C22.0474 13.4616 22.6805 13.4616 23.0711 13.0711C23.4616 12.6805 23.4616 12.0474 23.0711 11.6569L16.7071 5.29289ZM17 26V6H15V26H17ZM30 16C30 23.732 23.732 30 16 30V34C25.9411 34 34 25.9411 34 16H30ZM16 30C8.26801 30 2 23.732 2 16H-2C-2 25.9411 6.05887 34 16 34V30ZM2 16C2 8.26801 8.26801 2 16 2V-2C6.05887 -2 -2 6.05887 -2 16H2ZM16 2C23.732 2 30 8.26801 30 16H34C34 6.05887 25.9411 -2 16 -2V2Z" fill="#241D1F" mask="url(#path-1-inside-1_29_6)"/>
</svg>
